<?xml version="1.0" encoding="UTF-8"?>
<svg version="1.1" xmlns="http://www.w3.org/2000/svg" width="2560" height="362">
<path d="M0 0 C7.11213759 6.18168889 13.63464767 13.06559123 19.1875 20.6875 C20.71722888 16.37472578 21.78718428 12.13474402 22.66015625 7.64453125 C22.78813095 6.99425461 22.91610565 6.34397797 23.04795837 5.67399597 C23.45235175 3.61670319 23.85153608 1.55844871 24.25 -0.5 C24.65272939 -2.56901322 25.05660866 -4.63778538 25.4627533 -6.70613098 C25.82935121 -8.57466855 26.1922392 -10.44393286 26.55493164 -12.31323242 C27.1875 -15.3125 27.1875 -15.3125 28.1875 -18.3125 C55.2475 -18.3125 82.3075 -18.3125 110.1875 -18.3125 C110.1875 95.8675 110.1875 210.0475 110.1875 327.6875 C83.1275 327.6875 56.0675 327.6875 28.1875 327.6875 C25.8775 320.4275 23.5675 313.1675 21.1875 305.6875 C19.20388203 299.68177155 19.20388203 299.68177155 17.1875 293.6875 C16.48367188 294.43773437 15.77984375 295.18796875 15.0546875 295.9609375 C-8.54475737 320.63087265 -40.44553383 333.10914418 -74.46875 333.9609375 C-106.13449544 334.56056593 -134.87281799 329.15680657 -162.8125 313.6875 C-163.44494629 313.33961426 -164.07739258 312.99172852 -164.72900391 312.63330078 C-204.95180229 290.23034017 -235.30512634 251.57599385 -248.05834961 207.40673828 C-249.10002301 203.52542358 -249.9771297 199.61767059 -250.8125 195.6875 C-250.97476074 194.97142578 -251.13702148 194.25535156 -251.30419922 193.51757812 C-256.43591403 170.10975618 -256.16135411 142.01894072 -250.8125 118.6875 C-250.64089355 117.91422363 -250.46928711 117.14094727 -250.29248047 116.34423828 C-239.37269163 68.32253954 -211.02065204 27.13894224 -169.44921875 0.53515625 C-121.66610861 -29.28433036 -46.14438472 -38.87901103 0 0 Z M-139 90.4375 C-156.25904038 108.60682732 -165.32174394 132.24948311 -166.0625 157.25 C-165.28894282 181.59429937 -155.15864177 203.72797358 -137.8125 220.6875 C-123.26470164 233.9596131 -105.43805463 243.67119719 -85.8125 246.6875 C-85.11511719 246.79707031 -84.41773437 246.90664063 -83.69921875 247.01953125 C-58.38817603 250.39133978 -32.63763722 243.23257541 -12.40234375 227.78125 C7.6653591 211.55758676 20.88214576 190.59225303 24.1875 164.6875 C26.14325174 140.72528958 19.05328456 115.95170342 3.515625 97.3984375 C0.85841961 94.36810871 -1.94650508 91.520834 -4.8125 88.6875 C-5.61429688 87.87539062 -6.41609375 87.06328125 -7.2421875 86.2265625 C-44.86159595 50.08726192 -102.95162659 56.76357035 -139 90.4375 Z " fill="#0055D2" transform="translate(2449.8125,26.3125)"/>
<path d="M0 0 C0.59941406 0.47840332 1.19882813 0.95680664 1.81640625 1.44970703 C38.41945846 31.00686933 60.14256324 74.0823166 65.58203125 120.6328125 C66.16134667 126.84088182 66.1860554 133.05361628 66.18530273 139.28491211 C66.18748524 141.29888192 66.20570092 143.31229857 66.22460938 145.32617188 C66.22654297 146.63779297 66.22847656 147.94941406 66.23046875 149.30078125 C66.23457764 150.46778564 66.23868652 151.63479004 66.24291992 152.8371582 C65.90681086 158.5969528 64.87730806 164.29749759 64 170 C-22.46 170 -108.92 170 -198 170 C-187.26844267 199.12851274 -173.89759725 218.11992822 -145.921875 231.46875 C-123.57106235 240.86755327 -97.38755578 241.94043917 -74 236 C-73.33742188 235.83371094 -72.67484375 235.66742188 -71.9921875 235.49609375 C-52.64025257 230.4526358 -31.41528987 220.1229348 -20 203 C-16.87848767 203.59428956 -15.02915283 204.52087369 -12.6015625 206.5546875 C-11.96476562 207.08126953 -11.32796875 207.60785156 -10.671875 208.15039062 C-9.65867187 209.00407227 -9.65867187 209.00407227 -8.625 209.875 C-7.18050706 211.07130279 -5.73518017 212.26659924 -4.2890625 213.4609375 C-3.5662207 214.0600293 -2.84337891 214.65912109 -2.09863281 215.27636719 C0.89509251 217.73515043 3.94244636 220.12141157 7 222.5 C12.07319031 226.45823534 17.07987401 230.49093861 22.0625 234.5625 C28.93891986 240.17963375 35.92625564 245.63412885 43 251 C40.59662405 256.31914677 36.6959991 260.53652567 33 265 C32.40574219 265.72058594 31.81148437 266.44117188 31.19921875 267.18359375 C27.16157223 271.94523206 22.82414373 276.04514191 18 280 C17.51144531 280.40621582 17.02289062 280.81243164 16.51953125 281.23095703 C-3.30150706 297.63850539 -26.13530767 309.32297271 -51 316 C-52.10601563 316.29729004 -52.10601563 316.29729004 -53.234375 316.60058594 C-69.39909889 320.84955813 -85.21648023 322.41519776 -101.875 322.375 C-103.1539212 322.37418427 -103.1539212 322.37418427 -104.4586792 322.37335205 C-118.93666789 322.33108104 -132.85822595 321.30379791 -147 318 C-147.90266602 317.79101074 -148.80533203 317.58202148 -149.73535156 317.36669922 C-196.56004476 306.10346221 -236.47207503 276.69465099 -261.84326172 235.93847656 C-286.61339601 194.42837392 -292.8242972 143.01192598 -281.33447266 96.29394531 C-273.82485392 67.32903228 -260.3289094 40.94382719 -239.87109375 19.02734375 C-237.8437039 16.88868899 -237.8437039 16.88868899 -235.625 13.9375 C-232.35328869 10.27629925 -228.70866259 7.33788365 -224.87109375 4.28515625 C-223.11088218 2.88417153 -221.36885181 1.45946741 -219.66015625 -0.00390625 C-159.82569624 -50.63306472 -60.04215431 -47.99806126 0 0 Z M-179.49707031 78.23828125 C-185.54280407 85.32502829 -195 97.53695526 -195 107 C-138.9 107 -82.8 107 -25 107 C-27.20942386 89.32460915 -36.80094127 76.57622364 -50 65 C-53.53104749 62.3862358 -57.16453345 60.13706347 -61 58 C-61.77601563 57.55140625 -62.55203125 57.1028125 -63.3515625 56.640625 C-102.36353462 35.50370365 -150.22102901 46.09062331 -179.49707031 78.23828125 Z " fill="#0055D2" transform="translate(1905,38)"/>
<path d="M0 0 C1.20462891 1.01900391 1.20462891 1.01900391 2.43359375 2.05859375 C7.42389718 6.37566906 11.77155906 10.94541408 16 16 C16.73734375 16.82628906 17.4746875 17.65257812 18.234375 18.50390625 C48.5429773 53.20436015 62.45698876 99.55358163 59.55029297 145.18725586 C57.7146403 168.83023601 51.69090465 190.84385623 41 212 C40.69336426 212.6197168 40.38672852 213.23943359 40.07080078 213.87792969 C18.46649269 257.35533976 -21.44036749 288.64446008 -66.94677734 304.03369141 C-85.57842974 309.93038741 -104.70547874 312.41697122 -124.1875 312.3125 C-125.25825775 312.30976578 -125.25825775 312.30976578 -126.35064697 312.30697632 C-176.14720088 312.09421792 -220.29719535 292.09325198 -256 258 C-256.65484375 257.39800781 -257.3096875 256.79601562 -257.984375 256.17578125 C-284.35701466 231.24735757 -300.22638385 194.21945695 -306 159 C-306.1750708 157.93434814 -306.3501416 156.86869629 -306.53051758 155.77075195 C-307.0342785 151.72468466 -307.17874725 147.74203908 -307.203125 143.671875 C-307.21018463 142.88950974 -307.21724426 142.10714447 -307.22451782 141.30107117 C-307.45160905 108.74131151 -307.45160905 108.74131151 -304 95 C-303.80132324 94.17902832 -303.60264648 93.35805664 -303.39794922 92.51220703 C-296.11138811 63.07668339 -282.56148036 35.59273443 -261.47265625 13.61328125 C-259.6920001 11.73135556 -258.03528342 9.86537895 -256.3984375 7.8671875 C-253.24985121 4.10324232 -249.77581215 1.11758816 -246 -2 C-245.01128906 -2.82628906 -244.02257812 -3.65257812 -243.00390625 -4.50390625 C-172.1409776 -62.62872992 -68.83090602 -58.61797406 0 0 Z M-194.55859375 71.21875 C-208.18830369 86.74571556 -218.10828376 106.00751351 -219 127 C-219.0515625 127.86238281 -219.103125 128.72476563 -219.15625 129.61328125 C-219.92392286 153.25120807 -210.93734284 176.68836568 -194.9375 194 C-192.98969242 196.03610981 -191.00557265 198.01928982 -189 200 C-188.31164062 200.68707031 -187.62328125 201.37414062 -186.9140625 202.08203125 C-169.41890614 218.43298962 -144.82651794 226.47205763 -121.21484375 226.14453125 C-98.42926415 225.12014918 -76.82523008 216.38011829 -60 201 C-59.15953125 200.25234375 -58.3190625 199.5046875 -57.453125 198.734375 C-40.41906575 182.75833185 -29.9830495 160.02064219 -28.83984375 136.73828125 C-28.19539727 109.92370372 -38.76088284 86.91835351 -57.125 67.5 C-75.76963002 49.43003323 -100.66920218 39.64147819 -126.68579102 39.90625 C-152.70983859 40.96049984 -176.56402558 52.50208841 -194.55859375 71.21875 Z " fill="#0055D2" transform="translate(661,48)"/>
<path d="M0 0 C30.03 0 60.06 0 91 0 C91.01458252 6.40937988 91.02916504 12.81875977 91.04418945 19.42236328 C91.09454619 40.60863579 91.16099399 61.79483531 91.23571491 82.98103523 C91.28062195 95.82507632 91.32004837 108.66909 91.34643555 121.51318359 C91.36945684 132.71207738 91.40290102 143.91088404 91.44870156 155.10970867 C91.472578 161.03576936 91.49134333 166.96174407 91.49761391 172.88785172 C91.50368999 178.47419615 91.52378074 184.06032073 91.55427551 189.64658356 C91.5630154 191.6886352 91.56678679 193.73071562 91.56500816 195.77278519 C91.5520744 217.48858437 94.86685194 236.84239589 109.875 253.5625 C123.48511876 266.68982738 142.84861292 270.31509432 161.05859375 270.15234375 C178.57016088 269.47548437 197.03846271 264.47025828 210.09765625 252.12890625 C224.5861247 235.91491178 231.1306065 214.89934962 231.15821838 193.3692627 C231.16315636 192.53754972 231.16809434 191.70583674 231.17318195 190.84892035 C231.18845119 188.08222481 231.19688867 185.31555228 231.20532227 182.54882812 C231.21490912 180.5575236 231.22491967 178.56622109 231.23532104 176.57492065 C231.26228871 171.18301721 231.28334221 165.79110508 231.30332303 160.39917183 C231.32523293 154.75905919 231.35259708 149.11897306 231.37937927 143.47888184 C231.4292386 132.80479024 231.47420245 122.13068388 231.51740164 111.45656347 C231.57607799 97.02821914 231.64232846 82.5999097 231.70815182 68.17159653 C231.81162074 45.44775455 231.90498021 22.72388251 232 0 C262.03 0 292.06 0 323 0 C323 114.18 323 228.36 323 346 C292.97 346 262.94 346 232 346 C231.67 334.12 231.34 322.24 231 310 C228.36 313.3 225.72 316.6 223 320 C208.18921696 336.13712182 189.17674962 346.05220611 168 351 C166.99235596 351.24556641 166.99235596 351.24556641 165.96435547 351.49609375 C144.67163738 356.45193677 117.14341821 356.84155631 96 351 C95.17967285 350.77425293 94.3593457 350.54850586 93.51416016 350.31591797 C63.62062587 341.77569478 40.12885219 325.1036412 23 299 C22.37351562 298.05769531 21.74703125 297.11539062 21.1015625 296.14453125 C1.44558067 264.61491333 -0.18257562 227.32047436 -0.11352539 191.2902832 C-0.11324251 189.1889852 -0.11340322 187.0876871 -0.1139679 184.98638916 C-0.11425194 179.34512335 -0.10841942 173.7038793 -0.10139394 168.06261849 C-0.09509431 162.1436501 -0.09455142 156.22468107 -0.09336853 150.30570984 C-0.09027455 139.12551697 -0.08208749 127.94533401 -0.07201904 116.76514548 C-0.06079752 104.02492441 -0.05533231 91.28470285 -0.05032361 78.54447806 C-0.03990304 52.36297863 -0.02158189 26.18149277 0 0 Z " fill="#0056D1" transform="translate(750,8)"/>
<path d="M0 0 C0.80146454 -0.00067474 1.60292908 -0.00134949 2.42868042 -0.00204468 C14.72775142 0.01438705 26.58628885 0.52890311 38.625 3.25 C39.77911377 3.49943359 39.77911377 3.49943359 40.95654297 3.75390625 C82.08293666 12.85378439 114.43683916 36.46775874 137.625 71.25 C137.625 72.24 137.625 73.23 137.625 74.25 C136.9222998 74.61125977 136.21959961 74.97251953 135.49560547 75.34472656 C123.51654766 81.510504 111.54951541 87.68266762 99.75 94.1875 C91.50891555 98.72250703 83.20725913 103.13198493 74.86029053 107.46829224 C73.54271626 108.15300391 72.22585441 108.8390883 70.909729 109.52658081 C69.07222979 110.48558001 67.23193524 111.43896795 65.390625 112.390625 C63.79395996 113.21868652 63.79395996 113.21868652 62.16503906 114.06347656 C59.625 115.25 59.625 115.25 57.625 115.25 C56.43359375 113.4140625 56.43359375 113.4140625 55.0625 110.875 C46.29287273 95.86258722 32.79571574 86.07907595 16.05078125 81.63671875 C9.71577499 80.10606744 3.68621185 79.75007531 -2.8125 79.8125 C-4.44892456 79.82168457 -4.44892456 79.82168457 -6.1184082 79.83105469 C-16.73188596 80.03694174 -25.74702259 81.7207198 -34.375 88.25 C-35.035 88.25 -35.695 88.25 -36.375 88.25 C-40.11628643 95.46533812 -42.55451641 102.20778053 -40.14453125 110.27734375 C-36.77576893 118.91300349 -29.78046932 123.28135517 -21.59130859 127.07666016 C-6.72601967 133.50230117 9.31904228 137.15535059 24.90296936 141.40365601 C112.78093861 165.41486969 112.78093861 165.41486969 134.81640625 204.00390625 C147.19927426 226.78973333 149.68519974 256.35350619 142.625 281.25 C135.71320028 303.84164871 121.8876907 323.67220427 101.625 336.25 C101.06603027 336.5991748 100.50706055 336.94834961 99.93115234 337.30810547 C54.66902959 365.21107229 -7.1279712 366.17359376 -57.62011719 354.29150391 C-93.58811529 345.30937485 -124.69590097 325.09436025 -144.375 293.25 C-151.375 281.06039383 -151.375 281.06039383 -151.375 277.25 C-150.86864014 276.99943848 -150.36228027 276.74887695 -149.84057617 276.49072266 C-138.98758044 271.11239799 -128.20567172 265.62254557 -117.5 259.95703125 C-102.21883568 251.87215891 -86.87970684 243.89837253 -71.375 236.25 C-70.82972656 237.14460937 -70.28445313 238.03921875 -69.72265625 238.9609375 C-64.90758488 246.732329 -59.87189617 253.75310383 -53.375 260.25 C-52.53388672 261.09111328 -52.53388672 261.09111328 -51.67578125 261.94921875 C-36.31138231 276.12315579 -15.33570157 280.6627702 4.9375 280.5625 C6.12867432 280.55686035 7.31984863 280.5512207 8.54711914 280.54541016 C21.57412979 280.36545692 33.52519979 278.70714132 44.625 271.25 C49.46094195 265.8451237 51.12287827 260.74097968 50.94140625 253.5546875 C50.0698365 247.2062165 46.48274056 242.26291611 41.625 238.25 C30.03905825 230.19501193 16.85988274 225.72639361 3.38265991 222.03851318 C1.1161046 221.41795264 -1.14667798 220.78496537 -3.40893555 220.14892578 C-6.53616428 219.27054916 -9.66445357 218.39615863 -12.79394531 217.52587891 C-102.04532406 192.69044676 -102.04532406 192.69044676 -124.375 156.25 C-131.51545617 143.26188604 -135.81306424 129.14129766 -136.375 114.25 C-136.4265625 113.24453125 -136.478125 112.2390625 -136.53125 111.203125 C-137.26128839 84.80006977 -128.95143432 59.0787127 -110.78515625 39.71826172 C-82.02428069 9.77229468 -40.26501071 0.03049166 0 0 Z " fill="#0055D2" transform="translate(1452.375,-0.24999999999999997)"/>
<path d="M0 0 C1.03898437 0.75667969 2.07796875 1.51335938 3.1484375 2.29296875 C20.87941207 15.42261659 35.30321328 31.02311822 48 49 C45.5849251 51.67813752 42.98947088 53.3043511 39.86328125 55.08203125 C38.82333008 55.67709473 37.78337891 56.2721582 36.71191406 56.88525391 C35.59010742 57.52124512 34.46830078 58.15723633 33.3125 58.8125 C31.54086993 59.82440926 29.77027581 60.8381164 27.99966431 61.85180664 C26.78805302 62.54524262 25.57611511 63.23810819 24.36386108 63.93041992 C18.47304042 67.29519237 12.60881071 70.70482068 6.75 74.125 C5.77877197 74.68944824 4.80754395 75.25389648 3.80688477 75.83544922 C-1.24236262 78.77611341 -6.26204875 81.75716698 -11.25 84.80078125 C-12.25772461 85.41099121 -13.26544922 86.02120117 -14.30371094 86.64990234 C-16.22483732 87.81550455 -18.1399062 88.99116765 -20.04785156 90.17822266 C-20.9034668 90.69562012 -21.75908203 91.21301758 -22.640625 91.74609375 C-23.38860352 92.20685303 -24.13658203 92.6676123 -24.90722656 93.14233398 C-27 94 -27 94 -29.14477539 93.77978516 C-32.03527409 92.56485519 -33.31762663 90.41363468 -35.1875 87.9375 C-49.5014991 69.88738368 -72.04311819 57.70902377 -95 55 C-107.84449062 54.36848972 -120.63650571 54.11981027 -133 58 C-133.61713867 58.18804199 -134.23427734 58.37608398 -134.87011719 58.56982422 C-159.68648909 66.31800591 -178.48221964 82.64623816 -190.8125 105.4375 C-202.04234889 126.97648375 -203.97400731 150.96436863 -196.78125 174.11328125 C-188.39855553 198.96628419 -170.85313497 218.36063544 -147.40625 229.98828125 C-124.55124421 240.75689203 -99.00254804 241.78585444 -75.15625 233.60546875 C-63.11962232 229.15180209 -52.42270544 222.69664081 -43 214 C-42.3709375 213.43925781 -41.741875 212.87851563 -41.09375 212.30078125 C-35.63209332 207.17427169 -31.39366748 201.03106264 -27 195 C-17.76097944 200.2603571 -8.54800602 205.56256341 0.625 210.9375 C1.2331958 211.29362366 1.8413916 211.64974731 2.46801758 212.0166626 C15.50668782 219.65744492 28.42864598 227.48609954 41.32226562 235.36865234 C43.87485355 236.92375743 46.4350713 238.4653526 49 240 C42.66437068 258.05980934 22.66178057 275.5127977 8 287 C7.45875488 287.42829102 6.91750977 287.85658203 6.35986328 288.29785156 C-32.83361173 319.0806613 -82.83972301 330.59859206 -131.95581055 325.22631836 C-178.98035745 319.03695378 -223.91996292 294.17653208 -252.94824219 256.44897461 C-254.31095273 254.6413221 -255.6578924 252.82298822 -257 251 C-257.41604492 250.44425293 -257.83208984 249.88850586 -258.26074219 249.31591797 C-277.08605805 223.88457334 -289.90254384 189.71927085 -290.23828125 157.84765625 C-290.24802979 157.0787355 -290.25777832 156.30981476 -290.26782227 155.51759338 C-290.5024888 132.18690035 -289.20582639 110.08455827 -281 88 C-280.71640625 87.22205078 -280.4328125 86.44410156 -280.140625 85.64257812 C-273.70297566 68.17090693 -265.27183812 52.79917384 -254 38 C-253.30519531 37.07960938 -252.61039063 36.15921875 -251.89453125 35.2109375 C-222.34865263 -2.3727505 -177.28683847 -26.30574605 -130 -32 C-84.9591279 -37.0574465 -36.83432225 -27.33382703 0 0 Z " fill="#0056D1" transform="translate(290,34)"/>
<path d="M0 0 C-0.68579426 8.94664777 -2.37037224 17.62011872 -4.125 26.40234375 C-4.43541182 27.97263224 -4.74546421 29.54299182 -5.05517578 31.11341858 C-5.70122446 34.38421449 -6.35034829 37.65437879 -7.00195312 40.92407227 C-7.83709715 45.11513678 -8.66634591 49.30734021 -9.49356079 53.49997616 C-10.13188707 56.73359035 -10.77232729 59.96678273 -11.41351318 63.19983101 C-11.72014242 64.74631822 -12.02633842 66.2928914 -12.33209229 67.83955193 C-12.75845077 69.99361861 -13.18741966 72.1471484 -13.6171875 74.30053711 C-13.98239502 76.13726234 -13.98239502 76.13726234 -14.35498047 78.01109314 C-15 81 -15 81 -16 84 C-16.90878906 83.97679688 -17.81757813 83.95359375 -18.75390625 83.9296875 C-39.70856182 83.62880014 -62.21237292 86.8277541 -78.1015625 101.87890625 C-98.31077517 124.45833522 -100.28564323 152.91937357 -100.31884766 181.78198242 C-100.32817637 183.67639072 -100.33834924 185.57079502 -100.34928894 187.4651947 C-100.37627186 192.54241163 -100.39164268 197.61960134 -100.40471697 202.69687057 C-100.42048843 208.02729985 -100.44723289 213.35767463 -100.4727478 218.68806458 C-100.51929003 228.75262898 -100.55615193 238.81720394 -100.58942068 248.88182002 C-100.6350151 262.50283443 -100.69579717 276.12378085 -100.75566864 289.74473858 C-100.84941867 311.16312475 -100.92307893 332.58153146 -101 354 C-130.7 354 -160.4 354 -191 354 C-191 239.82 -191 125.64 -191 8 C-161.3 8 -131.6 8 -101 8 C-100.67 20.21 -100.34 32.42 -100 45 C-97.03 41.37 -94.06 37.74 -91 34 C-73.46036157 14.91274641 -50.26406243 5.21559035 -25 1 C-23.82244141 0.80083984 -23.82244141 0.80083984 -22.62109375 0.59765625 C-15.15358226 -0.43674287 -7.52060311 -0.0830496 0 0 Z " fill="#0055D2" transform="translate(2197,0)"/>
<path d="M0 0 C0.8650415 0.00535767 1.73008301 0.01071533 2.62133789 0.01623535 C4.7241646 0.03004106 6.82694003 0.05133079 8.9296875 0.07421875 C6.86426366 10.73182046 4.79569613 21.38880665 2.72307682 32.04501152 C1.76084882 36.99276045 0.79971826 41.94071736 -0.15893555 46.88916016 C-1.08357019 51.66178704 -2.01104662 56.43385351 -2.94052315 61.2055397 C-3.29520178 63.02905604 -3.64884385 64.8527743 -4.00144768 66.67669296 C-4.49426133 69.22494057 -4.99070597 71.77245501 -5.48803711 74.31982422 C-5.70706192 75.45917923 -5.70706192 75.45917923 -5.93051147 76.62155151 C-6.95626034 81.84611443 -6.95626034 81.84611443 -8.0703125 84.07421875 C-9.13507813 84.05101563 -10.19984375 84.0278125 -11.296875 84.00390625 C-33.1455797 83.66968108 -53.4090285 87.17980356 -69.7890625 102.73046875 C-85.15956056 118.52207634 -91.2005971 139.99702947 -91.22853088 161.66699219 C-91.23346886 162.49462161 -91.23840684 163.32225103 -91.24349445 164.17496014 C-91.25876265 166.92783613 -91.26720088 169.680689 -91.27563477 172.43359375 C-91.2852217 174.41504619 -91.29523225 176.39649662 -91.30563354 178.37794495 C-91.33260032 183.74298968 -91.35365429 189.10804314 -91.37363553 194.47311783 C-91.39554599 200.08520333 -91.42290987 205.69726219 -91.44969177 211.30932617 C-91.49955036 221.93029375 -91.54451448 232.55127616 -91.58771414 243.17227268 C-91.64639132 257.52886633 -91.71264139 271.8854249 -91.77846432 286.24198723 C-91.88193207 308.85270742 -91.97529231 331.46345783 -92.0703125 354.07421875 C-121.7703125 354.07421875 -151.4703125 354.07421875 -182.0703125 354.07421875 C-182.19875385 318.49938155 -182.32642682 282.92454196 -182.45249477 247.34969629 C-182.46750824 243.11333916 -182.48253065 238.87698207 -182.49755859 234.640625 C-182.50054921 233.79753257 -182.50353982 232.95444013 -182.50662106 232.08579944 C-182.55454694 218.58084048 -182.60319068 205.0758842 -182.65211791 191.57092883 C-182.70261318 177.62855846 -182.75229496 163.68618534 -182.80127954 149.74380958 C-182.82868919 141.94846832 -182.85643273 134.15312859 -182.88511658 126.3577919 C-183.02875399 87.26304016 -183.10336073 48.16927859 -183.0703125 9.07421875 C-179.12352112 8.99407543 -175.17672805 8.91401515 -171.22993469 8.83396912 C-170.11994 8.81142862 -169.00994531 8.78888812 -167.86631441 8.76566458 C-142.59452166 8.25329835 -117.34798469 7.96976556 -92.0703125 8.07421875 C-91.5753125 25.89421875 -91.5753125 25.89421875 -91.0703125 44.07421875 C-88.4303125 40.77421875 -85.7903125 37.47421875 -83.0703125 34.07421875 C-61.979237 11.09439022 -30.90634553 -0.37061207 0 0 Z " fill="#0055D2" transform="translate(1293.0703125,-0.07421874999999999)"/>
</svg>
