<?xml version="1.0" encoding="UTF-8"?>
<svg version="1.1" xmlns="http://www.w3.org/2000/svg" width="1083" height="504">
<path d="M0 0 C0.96700836 -0.00570007 1.93401672 -0.01140015 2.93032837 -0.01727295 C4.97258426 -0.02667963 7.01485502 -0.0332396 9.05712891 -0.03710938 C12.1204017 -0.04673777 15.18298015 -0.07777106 18.24609375 -0.109375 C33.78450296 -0.19444646 48.96046522 0.78586126 63.6640625 6.265625 C64.89249878 6.71180176 64.89249878 6.71180176 66.14575195 7.16699219 C85.92839737 14.59656258 104.78726485 25.36073949 120.7890625 39.203125 C121.61664062 39.90953125 122.44421875 40.6159375 123.296875 41.34375 C130.34455647 47.50777722 136.80430917 54.10584937 142.36328125 61.65625 C142.79898437 62.24438477 143.2346875 62.83251953 143.68359375 63.43847656 C144.52466542 64.58637423 145.35234837 65.74424429 146.1640625 66.91308594 C149.01659994 70.82697719 151.17960845 71.96960913 155.7890625 73.203125 C157.796204 73.43933746 159.81325582 73.60065999 161.83203125 73.6953125 C162.97897461 73.7581543 164.12591797 73.82099609 165.30761719 73.88574219 C166.51836914 73.94922852 167.72912109 74.01271484 168.9765625 74.078125 C204.67119364 76.33145781 235.73529905 88.98821742 259.7890625 116.203125 C275.27232785 134.99423189 283.50848827 156.49550161 287.23364258 180.40551758 C288.47001116 187.59682438 291.4882517 193.81100529 297.2265625 198.515625 C297.91363281 199.08796875 298.60070312 199.6603125 299.30859375 200.25 C301.1682241 201.71427586 303.04327017 203.1590093 304.92578125 204.59375 C335.65470463 228.04361723 356.24965101 260.27230167 361.97070312 298.88183594 C363.84321421 314.49543884 363.02589234 330.50798659 362.7890625 346.203125 C358.45554269 345.87218586 354.12226121 345.53824124 349.7890625 345.203125 C348.76506348 345.12465332 347.74106445 345.04618164 346.68603516 344.96533203 C343.82365272 344.7418961 340.9626344 344.50520265 338.1015625 344.265625 C337.12767578 344.19150391 336.15378906 344.11738281 335.15039062 344.04101562 C334.22291016 343.96173828 333.29542969 343.88246094 332.33984375 343.80078125 C331.51137939 343.73383057 330.68291504 343.66687988 329.8293457 343.59790039 C327.7890625 343.203125 327.7890625 343.203125 325.7890625 341.203125 C323.67961415 334.50252436 323.5806117 327.35315973 323.2890625 320.390625 C322.17728824 295.22684731 315.5408575 274.42961699 298.7890625 255.203125 C298.0671875 254.36007813 297.3453125 253.51703125 296.6015625 252.6484375 C283.71219748 237.92412816 268.98042168 229.55393926 251.56396484 221.12353516 C249.7890625 220.203125 249.7890625 220.203125 248.7890625 219.203125 C247.86674192 212.78995224 247.68141363 206.2882397 247.49902344 199.81958008 C246.74508473 174.38281455 239.90319468 153.80145925 221.34130859 135.63476562 C205.72936899 121.23583297 184.22329344 113.06918489 162.90625 113.8828125 C153.79553674 114.81900108 145.94749692 116.77194993 137.921875 121.1953125 C135.13491184 122.51222916 132.82269416 122.60228706 129.7890625 122.203125 C127.47286681 117.74230368 125.45059454 113.33901353 123.6640625 108.640625 C114.99688823 87.68614574 96.70111129 69.24603706 77.7890625 57.203125 C76.92410156 56.63078125 76.05914063 56.0584375 75.16796875 55.46875 C48.75624484 38.91105346 14.91816045 34.52616373 -15.2109375 41.203125 C-49.41432263 50.0564922 -76.82078663 71.93304329 -96.2109375 101.203125 C-98.07153384 104.47217276 -99.69420347 107.76576614 -101.2109375 111.203125 C-108.37478454 110.77069963 -113.63239685 108.99094718 -120.0859375 105.953125 C-127.11919407 102.78900708 -134.04891115 100.12425251 -141.5234375 98.203125 C-142.28060059 98.0081543 -143.03776367 97.81318359 -143.81787109 97.61230469 C-171.0241366 90.98785455 -198.50658447 97.14688316 -222.35888672 111.06982422 C-226.68855054 113.71921777 -230.48430166 116.77086207 -234.2109375 120.203125 C-235.11199219 121.01265625 -236.01304687 121.8221875 -236.94140625 122.65625 C-255.33704848 140.01158695 -267.28402545 166.0800798 -268.4296875 191.34765625 C-268.82523224 205.20530949 -266.79321218 218.11091162 -262.2109375 231.203125 C-261.7109375 233.953125 -261.7109375 233.953125 -262.2109375 236.203125 C-265.73263585 240.2175983 -269.58415699 242.72990271 -274.2109375 245.265625 C-293.22415032 256.26614339 -306.95024881 273.81311839 -312.99194336 294.99682617 C-317.32133906 311.44137051 -317.57912768 329.13025462 -312.9296875 345.51953125 C-312.15906857 348.39678779 -311.66037605 351.26016677 -311.2109375 354.203125 C-317.14305899 353.60180517 -322.60812217 352.39011539 -328.3359375 350.765625 C-335.41747645 348.80169115 -342.18857408 347.48688978 -349.5234375 346.85546875 C-352.2109375 346.203125 -352.2109375 346.203125 -354.0234375 344.45703125 C-362.33834574 328.67511659 -356.24772153 297.78482828 -351.47949219 281.7421875 C-344.91228702 260.79321605 -333.52861 243.50788321 -318.40893555 227.77856445 C-316.97790966 226.27894274 -315.58618131 224.75400471 -314.2109375 223.203125 C-313.73865723 222.67944336 -313.26637695 222.15576172 -312.77978516 221.61621094 C-306.95243645 214.46626929 -308.12231672 205.81213911 -308.328125 197.0456543 C-309.12418872 159.9098344 -292.85848906 124.19931154 -268.1015625 96.875 C-242.39484605 70.04244195 -204.16876803 54.8307606 -167.34643555 53.80175781 C-154.07590788 53.64572078 -141.22436893 55.22781754 -128.58984375 59.3984375 C-124.65457954 60.33562181 -122.12425659 60.20063771 -118.2109375 59.203125 C-115.4673278 57.60860613 -115.4673278 57.60860613 -113.0234375 55.390625 C-112.07855469 54.57851563 -111.13367188 53.76640625 -110.16015625 52.9296875 C-107.10206423 50.15477094 -104.21944482 47.21975076 -101.3359375 44.265625 C-91.8323213 34.5446159 -81.0201045 26.93647855 -69.2109375 20.203125 C-68.57704102 19.83832031 -67.94314453 19.47351563 -67.29003906 19.09765625 C-46.23340091 7.10038843 -24.36351613 0.1139782 0 0 Z " fill="#1B68B3" transform="translate(477.2109375,-0.203125)"/>
<path d="M0 0 C5.93484026 4.15635336 9.12001952 9.21779839 12.484375 15.52734375 C13.474375 17.01234375 13.474375 17.01234375 14.484375 18.52734375 C14.87367188 17.97046875 15.26296875 17.41359375 15.6640625 16.83984375 C24.06064394 5.38644234 35.33483422 -2.8979972 49.484375 -5.47265625 C62.07203335 -6.73086658 75.20297252 -6.09693878 85.921875 1.27734375 C95.57782057 9.40866633 99.72648337 20.29020645 101.484375 32.52734375 C101.79248068 37.56726342 101.83234559 42.60458748 101.86328125 47.65234375 C101.87948995 49.09058728 101.89667337 50.52882012 101.91477966 51.96704102 C101.96009417 55.72095813 101.99510492 59.47489015 102.02697754 63.22894287 C102.07922755 69.26446071 102.14397182 75.29982312 102.21519279 81.33514404 C102.23800186 83.4390723 102.25427617 85.54298044 102.26991272 87.64697266 C102.28340256 88.91589355 102.2968924 90.18481445 102.31079102 91.4921875 C102.32030289 92.61230225 102.32981476 93.73241699 102.33961487 94.88647461 C102.30763858 97.50519458 102.30763858 97.50519458 103.484375 99.52734375 C110.414375 100.02234375 110.414375 100.02234375 117.484375 100.52734375 C117.484375 110.09734375 117.484375 119.66734375 117.484375 129.52734375 C113.10991545 129.57360713 108.73632695 129.61332348 104.36181641 129.63720703 C102.87806296 129.64717806 101.39432871 129.6607598 99.91064453 129.67822266 C78.59174297 129.92260656 78.59174297 129.92260656 72.484375 125.21484375 C68.80868726 120.27563835 68.2349807 116.36511019 68.22900391 110.24951172 C68.22357323 109.17764366 68.22357323 109.17764366 68.21803284 108.0841217 C68.21115989 106.53783312 68.20862945 104.9915204 68.20998001 103.44521713 C68.21094976 100.98847001 68.19794786 98.53215509 68.18099976 96.07546997 C68.13488033 89.09233998 68.11015418 82.10925369 68.10351562 75.12597656 C68.09846837 70.84710075 68.07405321 66.56867428 68.03818893 62.28995132 C68.0284611 60.6690759 68.02602021 59.04813809 68.03136063 57.42724228 C68.21634489 42.36351371 68.21634489 42.36351371 61.53335571 29.29806519 C57.45798766 25.77614742 52.82808277 26.12705028 47.68359375 26.1953125 C39.36671039 27.0584811 33.44134655 31.62024294 28.23828125 37.9375 C20.08284462 49.97993761 19.18109851 63.2216605 19.0703125 77.28125 C19.05157098 78.79297406 19.03199542 80.30468798 19.0116272 81.81639099 C18.96061473 85.76671332 18.92082521 89.71706945 18.88348389 93.6675415 C18.83615647 98.42268883 18.77469284 103.1776725 18.71563721 107.93268585 C18.62780212 115.13083796 18.55776872 122.32896473 18.484375 129.52734375 C7.264375 129.52734375 -3.955625 129.52734375 -15.515625 129.52734375 C-15.5249707 126.88887451 -15.53431641 124.25040527 -15.54394531 121.53198242 C-15.57781831 112.78278163 -15.63342442 104.03381415 -15.69952774 95.28480053 C-15.73891928 89.98388171 -15.77114852 84.68312695 -15.78662109 79.38208008 C-15.80184256 74.25956641 -15.83638517 69.13750401 -15.88393402 64.01519203 C-15.89869136 62.06777192 -15.90666275 60.12028735 -15.90750885 58.17281151 C-15.66285362 43.33807579 -15.66285362 43.33807579 -20.515625 29.52734375 C-24.80095332 25.77768147 -29.99093537 26.02894923 -35.4765625 26.171875 C-43.09162186 27.06258246 -49.59711822 30.89286234 -54.39453125 36.8671875 C-63.62854478 51.11456337 -64.62100641 65.43117996 -64.83203125 81.96875 C-64.85264644 83.34594786 -64.87364395 84.72314004 -64.89500427 86.10032654 C-64.94975427 89.69556024 -64.99936764 93.2908465 -65.04785156 96.88616943 C-65.09841414 100.56673762 -65.15387021 104.247232 -65.20898438 107.92773438 C-65.31644425 115.12754617 -65.41583228 122.32740532 -65.515625 129.52734375 C-76.405625 129.52734375 -87.295625 129.52734375 -98.515625 129.52734375 C-98.54068115 126.50852051 -98.5657373 123.48969727 -98.59155273 120.37939453 C-98.67488754 110.42483017 -98.76359117 100.47031893 -98.85496426 90.51582527 C-98.9102182 84.47817973 -98.96364215 78.44052938 -99.01293945 72.40283203 C-99.06054654 66.58027696 -99.112888 60.75778222 -99.16856575 54.93529892 C-99.1890059 52.70967987 -99.20771618 50.48404426 -99.22469902 48.25839615 C-99.24870631 45.15023032 -99.27876587 42.04217927 -99.31030273 38.93408203 C-99.3160582 38.00619873 -99.32181366 37.07831543 -99.32774353 36.12231445 C-99.33753235 35.27814972 -99.34732117 34.43398499 -99.35740662 33.5642395 C-99.36385917 32.8286487 -99.37031172 32.0930579 -99.3769598 31.33517647 C-99.4089829 29.42604461 -99.4089829 29.42604461 -100.515625 27.52734375 C-107.445625 27.03234375 -107.445625 27.03234375 -114.515625 26.52734375 C-114.515625 16.95734375 -114.515625 7.38734375 -114.515625 -2.47265625 C-109.53462514 -2.5418368 -104.5553177 -2.60147444 -99.57421875 -2.63745117 C-97.88275478 -2.6524613 -96.19132922 -2.67287588 -94.5 -2.69897461 C-92.05719476 -2.73570311 -89.6149077 -2.75246036 -87.171875 -2.765625 C-86.05262634 -2.78885078 -86.05262634 -2.78885078 -84.9107666 -2.81254578 C-79.4863154 -2.81425258 -75.46992 -1.71970636 -70.515625 0.52734375 C-65.73233426 5.43328297 -65.74779892 11.00325657 -65.515625 17.52734375 C-64.99355469 16.82609375 -64.47148438 16.12484375 -63.93359375 15.40234375 C-48.59195682 -4.37251576 -22.93104096 -13.42391683 0 0 Z " fill="#F77A18" transform="translate(853.515625,371.47265625)"/>
<path d="M0 0 C10.59122736 9.73058036 14.74507307 22.56692417 15.89532471 36.65054321 C16.02577996 40.28905033 16.07245751 43.91780081 16.08203125 47.55859375 C16.10582725 49.55883484 16.12962757 51.5590759 16.15369225 53.55931377 C16.18332655 56.31226781 16.20001932 59.06524025 16.21673584 61.81829834 C16.24867461 66.6924393 16.29929586 71.56641139 16.3531189 76.44035339 C16.38036686 79.02665115 16.40170878 81.61301902 16.41665649 84.19941711 C16.42691864 85.35539902 16.43718079 86.51138092 16.44775391 87.70239258 C16.45424957 88.72383865 16.46074524 89.74528473 16.46743774 90.79768372 C16.34756339 93.06484129 16.34756339 93.06484129 17.60546875 94.1015625 C24.53546875 94.5965625 24.53546875 94.5965625 31.60546875 95.1015625 C31.60546875 104.6715625 31.60546875 114.2415625 31.60546875 124.1015625 C26.86171875 124.1428125 22.11796875 124.1840625 17.23046875 124.2265625 C15.75529785 124.24477051 14.28012695 124.26297852 12.76025391 124.28173828 C-4.78870398 124.35520455 -4.78870398 124.35520455 -11.39453125 120.2265625 C-14.96172194 116.4364224 -15.69564225 113.22674847 -16.39453125 108.1015625 C-16.8328125 108.67003906 -17.27109375 109.23851562 -17.72265625 109.82421875 C-25.77270587 119.62499054 -35.80867934 125.32190701 -48.39453125 127.1015625 C-62.50809132 128.31618403 -75.0268054 124.89460347 -86.64453125 116.8515625 C-95.34970956 108.14638419 -99.74778172 97.85986051 -99.89453125 85.6015625 C-99.72746126 74.64826191 -96.94502891 66.4714357 -89.2109375 58.45703125 C-83.83244542 53.95879169 -77.74652325 50.98947232 -71.39453125 48.1015625 C-70.50121094 47.68003906 -69.60789062 47.25851562 -68.6875 46.82421875 C-53.01993666 40.28578681 -35.04169352 40.6359577 -18.39453125 41.1015625 C-19.51421349 28.99944095 -19.51421349 28.99944095 -26.14453125 19.3515625 C-34.36986138 14.78193465 -43.57173924 15.50968676 -52.44921875 17.37109375 C-54.81161933 18.10524828 -54.81161933 18.10524828 -57.39453125 21.1015625 C-57.88953125 26.0515625 -57.88953125 26.0515625 -58.39453125 31.1015625 C-68.62453125 31.1015625 -78.85453125 31.1015625 -89.39453125 31.1015625 C-89.47703125 27.6159375 -89.55953125 24.1303125 -89.64453125 20.5390625 C-89.68094727 19.45423584 -89.71736328 18.36940918 -89.75488281 17.25170898 C-89.83848275 9.92255613 -88.64853881 5.86227683 -83.7890625 0.24609375 C-63.44159495 -16.88597152 -20.61203113 -16.34167558 0 0 Z M-62.39453125 74.1015625 C-65.72847482 78.01032393 -65.9081757 81.70973457 -65.74609375 86.66796875 C-65.04235505 91.5394044 -62.36334967 94.22726295 -58.83203125 97.4140625 C-53.30691995 101.23913956 -46.86154566 100.65259805 -40.39453125 100.1015625 C-34.91762534 98.49941514 -31.10653825 95.39967587 -27.39453125 91.1015625 C-26.90082031 90.56015625 -26.40710938 90.01875 -25.8984375 89.4609375 C-19.91160477 82.35437296 -17.03297805 73.36288678 -17.39453125 64.1015625 C-31.44046995 63.61442012 -51.84473024 63.22208021 -62.39453125 74.1015625 Z " fill="#1B68B3" transform="translate(188.39453125,376.8984375)"/>
<path d="M0 0 C0.70898438 0.26683594 1.41796875 0.53367187 2.1484375 0.80859375 C11.32445981 4.76377578 16.4744613 12.04729989 20.7734375 20.77734375 C23.95347083 29.13252685 24.30178118 37.00510517 24.33552551 45.86704445 C24.34391418 47.99875217 24.36450243 50.1300515 24.38806152 52.26164246 C24.44405912 57.54714233 24.47973007 62.83274071 24.51568604 68.1184082 C24.54695822 72.60543187 24.5861328 77.09224989 24.63594055 81.57910728 C24.65594647 83.6752285 24.66431089 85.77118933 24.67224121 87.86738586 C24.68565552 89.13938339 24.69906982 90.41138092 24.71289062 91.72192383 C24.72382751 93.39995842 24.72382751 93.39995842 24.73498535 95.1118927 C24.85193704 98.30989535 24.85193704 98.30989535 27 102 C31.29 102.33 35.58 102.66 40 103 C40 112.57 40 122.14 40 132 C35.62554045 132.04626338 31.25195195 132.08597973 26.87744141 132.10986328 C25.39368796 132.11983431 23.90995371 132.13341605 22.42626953 132.15087891 C1.377181 132.39216987 1.377181 132.39216987 -5 127.875 C-10.13591938 120.49211589 -9.28220985 111.57278555 -9.27439499 102.9405098 C-9.27342024 100.55940513 -9.28648279 98.17874028 -9.30337524 95.79769897 C-9.34936169 89.03313553 -9.37423759 82.26862094 -9.38085938 75.50390625 C-9.38590193 71.35124711 -9.41028473 67.19905208 -9.44618607 63.04655075 C-9.45591594 61.47508925 -9.45835363 59.90356339 -9.45301437 58.33208084 C-9.37207576 45.65302253 -9.37207576 45.65302253 -14 34 C-20.7815189 28.32566786 -27.49260326 28.35072617 -36 29 C-45.57538203 30.87702853 -53.14033387 36.34470983 -58.62890625 44.38671875 C-64.68544551 55.61391541 -65.45836372 67.55636762 -65.51171875 80.046875 C-65.52860657 81.5543154 -65.54676216 83.06174208 -65.56611633 84.56915283 C-65.61317806 88.49478867 -65.64326847 92.42036885 -65.66955566 96.34619141 C-65.70488526 101.07891523 -65.76177031 105.81142537 -65.81494904 110.54397583 C-65.89294769 117.69595482 -65.94394115 124.84766414 -66 132 C-76.89 132 -87.78 132 -99 132 C-99.02505615 128.98117676 -99.0501123 125.96235352 -99.07592773 122.85205078 C-99.15926254 112.89748642 -99.24796617 102.94297518 -99.33933926 92.98848152 C-99.3945932 86.95083598 -99.44801715 80.91318563 -99.49731445 74.87548828 C-99.54492154 69.05293321 -99.597263 63.23043847 -99.65294075 57.40795517 C-99.6733809 55.18233612 -99.69209118 52.95670051 -99.70907402 50.7310524 C-99.73308131 47.62288657 -99.76314087 44.51483552 -99.79467773 41.40673828 C-99.8004332 40.47885498 -99.80618866 39.55097168 -99.81211853 38.5949707 C-99.82190735 37.75080597 -99.83169617 36.90664124 -99.84178162 36.03689575 C-99.84823417 35.30130495 -99.85468672 34.56571415 -99.8613348 33.80783272 C-99.8933579 31.89870086 -99.8933579 31.89870086 -101 30 C-107.93 29.505 -107.93 29.505 -115 29 C-115 19.43 -115 9.86 -115 0 C-109.87619923 -0.09222841 -104.75531959 -0.17174031 -99.63134766 -0.21972656 C-97.89133911 -0.23974522 -96.15139701 -0.26696886 -94.41162109 -0.30175781 C-91.89924654 -0.35070952 -89.38776725 -0.37306587 -86.875 -0.390625 C-86.10696045 -0.41127014 -85.3389209 -0.43191528 -84.54760742 -0.45318604 C-78.91889084 -0.4554836 -74.72582236 0.91367993 -70 4 C-65.9226091 8.34044838 -66.28815392 14.3263487 -66 20 C-65.52691406 19.35933594 -65.05382812 18.71867187 -64.56640625 18.05859375 C-49.5764924 -1.54809668 -23.49672626 -9.5896533 0 0 Z " fill="#1B68B3" transform="translate(546,369)"/>
<path d="M0 0 C0.85207031 0.32871094 1.70414062 0.65742188 2.58203125 0.99609375 C15.85526454 6.88851222 25.67984274 18.69071026 31 32 C35.32173202 44.33171742 36.15460739 57.00150958 35 70 C34.67 70.66 34.34 71.32 34 72 C-10.055 72.495 -10.055 72.495 -55 73 C-50.87839801 86.73867331 -46.29402524 95.36772035 -33.47265625 102.3828125 C-22.71425429 107.00973424 -10.1530288 106.2361974 0.75 102.48828125 C5.26574467 100.42037414 9.35026484 97.83588076 13.42041016 94.99829102 C17.72799036 92 17.72799036 92 21 92 C23.64361091 95.14776437 25.66416008 98.75120948 27.8125 102.25 C28.43576172 103.21808594 29.05902344 104.18617188 29.70117188 105.18359375 C30.57032227 106.58544922 30.57032227 106.58544922 31.45703125 108.015625 C32.2610437 109.30388184 32.2610437 109.30388184 33.08129883 110.61816406 C34 113 34 113 33.27490234 115.20678711 C25.72390003 125.82764349 7.2095457 131.77072902 -5 134 C-24.62831446 137.19269262 -45.3968789 134.38405127 -61.85546875 122.640625 C-62.56316406 122.09921875 -63.27085937 121.5578125 -64 121 C-64.73863281 120.43796875 -65.47726562 119.8759375 -66.23828125 119.296875 C-79.97036745 108.00762969 -87.40167433 91.89602112 -89.625 74.5 C-91.41998632 55.5057811 -87.83352484 35.65370554 -75.9296875 20.3359375 C-57.71678733 -0.6691843 -26.69310189 -10.35038645 0 0 Z M-48 34 C-52.28506253 40.5571805 -52.28506253 40.5571805 -54 48 C-35.85 48 -17.7 48 1 48 C-0.11824054 39.05407565 -1.75512232 33.21759047 -8.9375 27.5625 C-21.96913408 18.78559719 -37.71502822 22.84911135 -48 34 Z " fill="#1B68B3" transform="translate(387,369)"/>
<path d="M0 0 C5.05462823 5.02501127 8.08002872 10.45637432 8.1953125 17.64453125 C8.18397482 19.36730962 8.15813904 21.09000307 8.125 22.8125 C8.08375 25.844375 8.0425 28.87625 8 32 C-1.9 32 -11.8 32 -22 32 C-22.33 28.7 -22.66 25.4 -23 22 C-27.40735848 17.59264152 -32.39842504 16.9201789 -38.4375 16.6875 C-43.78073357 16.81714518 -49.52628314 17.91866581 -53.69921875 21.4296875 C-55.75619997 23.91289005 -55.93739744 25.80726942 -56 29 C-53.33880721 33.94036521 -50.78062728 36.11337683 -45.75 38.5 C-45.1415625 38.79060303 -44.533125 39.08120605 -43.90625 39.38061523 C-38.05671611 42.10995187 -32.02312386 44.32530483 -25.96484375 46.5390625 C-10.45788881 52.22001591 3.66678533 59.14250741 11.1862793 74.7097168 C12.67488072 78.89950677 12.57616476 83.03581134 12.5 87.4375 C12.52320313 88.77264648 12.52320313 88.77264648 12.546875 90.13476562 C12.49223108 99.48570695 9.25458855 106.38768471 2.90234375 113.15625 C-8.94316471 124.63690707 -23.72208905 128.40863502 -39.88793945 128.29833984 C-58.28712823 127.79995174 -77.42795758 120.54619531 -90.625 107.5625 C-91.40875 106.716875 -92.1925 105.87125 -93 105 C-91.41128179 100.10145219 -88.56558426 96.43076005 -85.5 92.375 C-84.50995522 91.04982379 -83.5203549 89.72431538 -82.53125 88.3984375 C-81.87479492 87.52711182 -81.87479492 87.52711182 -81.20507812 86.63818359 C-80.09149134 85.12437335 -79.04243753 83.56365629 -78 82 C-75.14598288 83.30783654 -73.55403229 84.41623653 -71.1875 86.625 C-67.58941795 89.8006985 -63.65038707 92.00647493 -59.4375 94.25 C-58.80030029 94.59111816 -58.16310059 94.93223633 -57.5065918 95.28369141 C-48.36567645 100.04411631 -38.45253599 102.30214833 -28.28125 99.16015625 C-25.30893547 97.5609218 -23.51619012 96.19640327 -22.1640625 93.0625 C-21.45233575 89.51729504 -21.54989348 87.80627777 -23.34765625 84.5859375 C-27.25080897 80.78050731 -31.76477873 78.87428414 -36.6875 76.625 C-37.71391602 76.14313232 -38.74033203 75.66126465 -39.79785156 75.16479492 C-45.87541913 72.33941685 -52.01001513 69.75266932 -58.25 67.3125 C-70.36924163 62.50693743 -81.60247358 54.54249269 -87.5 42.5625 C-90.57519272 33.78996363 -90.5670112 22.12679322 -87.4375 13.375 C-82.15403918 2.71666901 -73.43005362 -3.23513921 -62.44140625 -7.32421875 C-42.41779717 -13.16529202 -17.63005031 -12.03801873 0 0 Z " fill="#F77A18" transform="translate(1071,376)"/>
<path d="M0 0 C2.03953627 0.89608338 4.06250928 1.83132176 6.0625 2.8125 C6.9184375 3.23144531 7.774375 3.65039062 8.65625 4.08203125 C17.80892222 8.88718417 23.29408023 14.57862635 28.0625 23.8125 C28.79166363 26.30452392 29.00448621 28.20187966 29.0625 30.8125 C26.08799326 30.37183233 24.95242598 29.71653803 22.625 27.6875 C20.26147599 25.54846101 20.26147599 25.54846101 17.61328125 25.91796875 C14.34697078 27.06342832 13.53825137 28.35650822 11.6875 31.25 C11.09195313 32.15363281 10.49640625 33.05726563 9.8828125 33.98828125 C9.28210938 34.92027344 8.68140625 35.85226562 8.0625 36.8125 C-12.78716575 67.7163379 -46.62690548 88.33163251 -82.9375 95.8125 C-117.9112457 101.41113406 -152.50610144 92.14807591 -181.25390625 72.03955078 C-186.41898832 68.27509276 -191.20538482 64.1005502 -195.9375 59.8125 C-196.86175781 58.99523437 -197.78601563 58.17796875 -198.73828125 57.3359375 C-206.167605 50.39043367 -211.5354556 42.4427519 -217.08984375 33.97265625 C-219.12399801 30.92860266 -221.04261792 28.11211412 -223.9375 25.8125 C-228.81996706 25.8125 -231.39835386 27.58563146 -234.9375 30.8125 C-235.5975 30.4825 -236.2575 30.1525 -236.9375 29.8125 C-236.4446362 21.92667912 -233.0759446 16.57964343 -227.375 11.1875 C-216.56853062 2.31075729 -203.78950503 -1.2987616 -189.9375 -0.1875 C-188.9475 0.1425 -187.9575 0.4725 -186.9375 0.8125 C-188.29907378 6.10750913 -191.54093955 8.04995533 -195.9375 10.8125 C-182.7074611 35.61882294 -162.21624457 52.68292559 -135.9375 61.8125 C-134.85082031 62.22628906 -133.76414062 62.64007813 -132.64453125 63.06640625 C-109.23279157 70.79847678 -78.8892913 66.87093311 -57.1081543 56.0612793 C-49.6200728 52.16732463 -43.23871867 47.44687191 -36.9375 41.8125 C-36.09703125 41.09191406 -35.2565625 40.37132812 -34.390625 39.62890625 C-20.17716762 27.77071788 -20.17716762 27.77071788 -11.9375 11.8125 C-13.79227946 7.1180388 -16.80742699 5.36770133 -21.125 3 C-22.21167969 2.39542969 -23.29835938 1.79085937 -24.41796875 1.16796875 C-25.66513672 0.49701172 -25.66513672 0.49701172 -26.9375 -0.1875 C-19.56299776 -4.85989455 -7.69368307 -2.88513115 0 0 Z " fill="#F77A18" transform="translate(584.9375,225.1875)"/>
<path d="M0 0 C10.89 0 21.78 0 33 0 C33 11.55 33 23.1 33 35 C42.57 35 52.14 35 62 35 C62 43.91 62 52.82 62 62 C52.43 62 42.86 62 33 62 C33.04670684 69.67860452 33.09721287 77.35557248 33.18379211 85.03356934 C33.22304325 88.60963815 33.25548377 92.18546147 33.27099609 95.76171875 C33.2862298 99.21148889 33.32079137 102.66059053 33.36830902 106.11006165 C33.39019091 108.05516362 33.39246796 110.00045457 33.39434814 111.94567871 C33.52997469 120.20379772 34.273567 126.17005497 40.25 132.3125 C46.1315543 135.9216356 50.95987236 137.12355926 57.78125 137.58203125 C59.53018555 137.70348511 59.53018555 137.70348511 61.31445312 137.82739258 C62.20068359 137.88435303 63.08691406 137.94131348 64 138 C64.02465746 142.1117256 64.04283959 146.22342278 64.05493164 150.33520508 C64.0599708 151.73495228 64.06680216 153.1346942 64.07543945 154.53442383 C64.0875232 156.54245777 64.09269807 158.55052957 64.09765625 160.55859375 C64.10289307 161.76829834 64.10812988 162.97800293 64.11352539 164.22436523 C64 167 64 167 63 168 C46.15616796 169.6533683 30.36319449 167.3372674 16 158 C15.03513672 157.42765625 15.03513672 157.42765625 14.05078125 156.84375 C6.33650853 151.43509137 1.53064544 139.48576584 -0.60118103 130.57736206 C-1.50987101 124.70496566 -1.2398397 118.70983715 -1.1953125 112.78125 C-1.19157633 111.31294956 -1.18873222 109.84464661 -1.18673706 108.37634277 C-1.17914807 104.53602051 -1.15954103 100.69585263 -1.1373291 96.85559082 C-1.11676793 92.92718595 -1.10771351 88.99875582 -1.09765625 85.0703125 C-1.07629 77.38013023 -1.04114726 69.69010653 -1 62 C-6.28 62 -11.56 62 -17 62 C-17 53.09 -17 44.18 -17 35 C-11.39 35 -5.78 35 0 35 C0 23.45 0 11.9 0 0 Z " fill="#1B68B3" transform="translate(17,334)"/>
<path d="M0 0 C10.56 0 21.12 0 32 0 C32 11.55 32 23.1 32 35 C41.9 35 51.8 35 62 35 C62 43.91 62 52.82 62 62 C52.1 62 42.2 62 32 62 C32.09710527 69.68664835 32.1999465 77.37277915 32.31738281 85.05908203 C32.35558418 87.67199066 32.39045224 90.28495028 32.421875 92.89794922 C32.46771733 96.6613178 32.52568103 100.42433793 32.5859375 104.1875 C32.59748871 105.34926758 32.60903992 106.51103516 32.62094116 107.70800781 C32.77864609 116.44292649 33.24884112 123.97080581 39 131 C44.8925733 135.6115791 50.48153269 137.17233874 57.875 137.625 C59.02742187 137.69976562 60.17984375 137.77453125 61.3671875 137.8515625 C62.67042969 137.92503906 62.67042969 137.92503906 64 138 C64.02465746 142.1117256 64.04283959 146.22342278 64.05493164 150.33520508 C64.0599708 151.73495228 64.06680216 153.1346942 64.07543945 154.53442383 C64.0875232 156.54245777 64.09269807 158.55052957 64.09765625 160.55859375 C64.10289307 161.76829834 64.10812988 162.97800293 64.11352539 164.22436523 C64 167 64 167 63 168 C44.78806386 169.10981829 26.4319723 167.46546031 11.8515625 155.19140625 C-0.07034367 142.67080173 -1.32414358 127.35037396 -1.1953125 110.92578125 C-1.19157258 109.5066091 -1.18873025 108.08743434 -1.18673706 106.66825867 C-1.17917749 102.97100429 -1.15959711 99.27391233 -1.1373291 95.57672119 C-1.11670317 91.7888 -1.1076999 88.00085203 -1.09765625 84.21289062 C-1.07634218 76.80851187 -1.04122485 69.40429958 -1 62 C-6.28 62 -11.56 62 -17 62 C-17 53.09 -17 44.18 -17 35 C-11.39 35 -5.78 35 0 35 C0 23.45 0 11.9 0 0 Z " fill="#1B68B3" transform="translate(604,334)"/>
<path d="M0 0 C5.30241361 -0.06902853 10.6032561 -0.12871364 15.90576172 -0.16479492 C17.70789892 -0.1798424 19.50999973 -0.2002853 21.31201172 -0.22631836 C23.90862021 -0.26288021 26.50474275 -0.27976681 29.1015625 -0.29296875 C30.30191635 -0.31619453 30.30191635 -0.31619453 31.52651978 -0.33988953 C37.4893319 -0.34166655 41.41114637 1.05835978 46.25 4.6875 C51.27376509 11.32604672 50.2992585 20.57110133 50.30297852 28.46850586 C50.31065131 29.817805 50.31919986 31.1670994 50.32855225 32.51638794 C50.34674116 35.40663603 50.3588363 38.29682059 50.36609077 41.18711662 C50.37762213 45.75417404 50.40309354 50.32109036 50.43040466 54.88807678 C50.47194517 62.1043701 50.50441731 69.32067027 50.53287882 76.53702599 C50.58400792 89.48265682 50.6459156 102.42822958 50.71821922 115.37375933 C50.74317603 119.91787196 50.76259032 124.46196553 50.77760136 129.00612152 C50.78777192 131.82284579 50.80191612 134.63954021 50.81707764 137.45624161 C50.8262132 139.39423088 50.83033123 141.33224174 50.83433533 143.27024841 C50.84123383 144.4128009 50.84813232 145.55535339 50.85523987 146.73252869 C50.85909478 147.73150146 50.8629497 148.73047422 50.86692142 149.75971889 C50.74949163 151.97080243 50.74949163 151.97080243 52 153 C56.29 153.33 60.58 153.66 65 154 C65 163.57 65 173.14 65 183 C60.62554045 183.04626338 56.25195195 183.08597973 51.87744141 183.10986328 C50.39368796 183.11983431 48.90995371 183.13341605 47.42626953 183.15087891 C26.94861146 183.38561942 26.94861146 183.38561942 20 179.1875 C16.35730714 175.20330468 15.75014936 171.3884896 15.74171448 166.10397339 C15.73488647 164.92345398 15.72805847 163.74293457 15.72102356 162.52664185 C15.72357651 161.24022797 15.72612946 159.95381409 15.72875977 158.62841797 C15.72437036 157.25325208 15.71906742 155.87808885 15.71292114 154.50292969 C15.7014395 151.54714203 15.6959631 148.59142589 15.69503975 145.6356163 C15.69309715 140.96323894 15.67503526 136.29100948 15.65428162 131.61868286 C15.60512643 120.01690732 15.57417839 108.41509182 15.55297852 96.81323242 C15.53646818 87.78992661 15.51370288 78.76674801 15.46995777 69.74352753 C15.448149 65.0970366 15.44012643 60.45078718 15.44235051 55.80424857 C15.4406868 52.91744667 15.42665785 50.03080333 15.40913773 47.14405823 C15.40084698 45.16348904 15.40748005 43.18287511 15.414505 41.20230103 C15.40485718 40.02742126 15.39520935 38.8525415 15.38526917 37.64205933 C15.38325784 36.61891066 15.38124651 35.59576199 15.37917423 34.54160881 C15.19851019 31.60347959 15.19851019 31.60347959 12 29 C8.04 28.67 4.08 28.34 0 28 C0 18.76 0 9.52 0 0 Z " fill="#F77A18" transform="translate(673,318)"/>
<path d="M0 0 C5.30241361 -0.06902853 10.6032561 -0.12871364 15.90576172 -0.16479492 C17.70789892 -0.1798424 19.50999973 -0.2002853 21.31201172 -0.22631836 C23.90862021 -0.26288021 26.50474275 -0.27976681 29.1015625 -0.29296875 C30.30191635 -0.31619453 30.30191635 -0.31619453 31.52651978 -0.33988953 C36.42666309 -0.34134985 39.76135778 0.27298825 44 3 C48.17762215 8.30670921 49.1180832 12.13940358 49.15148926 18.75126648 C49.15983292 19.92488739 49.16817657 21.0985083 49.17677307 22.30769348 C49.18095749 23.59149399 49.18514191 24.87529449 49.18945312 26.19799805 C49.19739813 27.56640883 49.20578629 28.9348171 49.21458435 30.30322266 C49.23262157 33.24700376 49.24764388 36.1907794 49.26036072 39.13458824 C49.28058886 43.78530309 49.30823795 48.43595556 49.33703613 53.08662415 C49.40220768 63.79403381 49.45771904 74.50148947 49.51302338 85.20895386 C49.56383141 95.03033308 49.61665873 104.85168951 49.67754889 114.67301208 C49.70595555 119.30074723 49.72952975 123.92847477 49.74947357 128.55625379 C49.76282119 131.42761249 49.78023484 134.29893584 49.79878426 137.1702652 C49.81029223 139.14645749 49.81681598 141.12267681 49.82322693 143.09889221 C49.83157059 144.26405365 49.83991425 145.42921509 49.84851074 146.62968445 C49.85624134 148.15805954 49.85624134 148.15805954 49.86412811 149.71731091 C49.74451123 151.9657922 49.74451123 151.9657922 51 153 C55.29 153.33 59.58 153.66 64 154 C64 163.57 64 173.14 64 183 C59.62554045 183.04626338 55.25195195 183.08597973 50.87744141 183.10986328 C49.39368796 183.11983431 47.90995371 183.13341605 46.42626953 183.15087891 C25.28218357 183.39325885 25.28218357 183.39325885 19 178.8125 C13.99270049 171.77098507 14.71194128 163.88359335 14.72875977 155.5690918 C14.72436752 154.21171254 14.71906356 152.85433597 14.71292114 151.4969635 C14.70146414 148.58595319 14.69596495 145.67501525 14.69503975 142.76398277 C14.69309343 138.16312962 14.67501276 133.56242588 14.65428162 128.96162415 C14.60518435 117.54141338 14.57415666 106.1211625 14.55297852 94.7008667 C14.536473 85.81051662 14.51373504 76.92029578 14.46995777 68.03003246 C14.44813939 63.45350952 14.4401272 58.87723189 14.44235051 54.30066049 C14.44068872 51.46088745 14.42667243 48.62127611 14.40913773 45.7815609 C14.40083356 43.83063794 14.40748594 41.87966946 14.414505 39.92874146 C14.40485718 38.77495499 14.39520935 37.62116852 14.38526917 36.43241882 C14.38325784 35.42569468 14.38124651 34.41897055 14.37917423 33.38173962 C14.19148299 32.20277851 14.19148299 32.20277851 14 31 C10.06674136 28.03326123 10.06674136 28.03326123 0 28 C0 18.76 0 9.52 0 0 Z " fill="#1B68B3" transform="translate(223,318)"/>
</svg>
