<?xml version="1.0" encoding="UTF-8"?>
<svg version="1.1" xmlns="http://www.w3.org/2000/svg" width="368" height="137">
<path d="M0 0 C121.44 0 242.88 0 368 0 C368 45.21 368 90.42 368 137 C246.56 137 125.12 137 0 137 C0 91.79 0 46.58 0 0 Z " fill="#FCFCFC" transform="translate(0,0)"/>
<path d="M0 0 C4.62 0 9.24 0 14 0 C14 28.05 14 56.1 14 85 C9.38 85 4.76 85 0 85 C0 83.35 0 81.7 0 80 C-0.62648437 80.34933594 -1.25296875 80.69867188 -1.8984375 81.05859375 C-2.71570313 81.51363281 -3.53296875 81.96867187 -4.375 82.4375 C-5.18710938 82.88996094 -5.99921875 83.34242187 -6.8359375 83.80859375 C-13.51047787 87.48320532 -22.66207751 86.97700957 -30.03515625 85.31640625 C-39.60400236 81.752122 -45.17687887 75.5454165 -49.75 66.5625 C-52.6990863 58.07369357 -52.29348576 47.46792569 -48.45703125 39.34765625 C-43.14988938 30.79647056 -36.82225514 24.70556378 -27 22.25 C-16.40950528 21.36745877 -10.31463171 22.67735331 -1 28 C-0.67 18.76 -0.34 9.52 0 0 Z " fill="#020202" transform="translate(115,23)"/>
<path d="M0 0 C5.09253162 3.33010672 8.05573732 7.65229298 10.04296875 13.3359375 C10.28347778 15.72151184 10.28347778 15.72151184 10.27001953 18.21801758 C10.26986847 19.15861526 10.26971741 20.09921295 10.26956177 21.0683136 C10.2592392 22.0705748 10.24891663 23.072836 10.23828125 24.10546875 C10.23545135 25.14160812 10.23262146 26.1777475 10.22970581 27.24528503 C10.21853329 30.54645457 10.1934338 33.84735031 10.16796875 37.1484375 C10.15793518 39.38997003 10.14880999 41.63150683 10.140625 43.87304688 C10.11860349 49.36078217 10.08409351 54.84831345 10.04296875 60.3359375 C5.42296875 60.3359375 0.80296875 60.3359375 -3.95703125 60.3359375 C-3.97161377 59.15563965 -3.98619629 57.9753418 -4.0012207 56.75927734 C-4.05935822 52.36444375 -4.13659006 47.97011424 -4.21948242 43.57568359 C-4.25265918 41.67667851 -4.28071356 39.77757654 -4.3034668 37.87841797 C-4.33714643 35.14248515 -4.38946845 32.40743439 -4.4453125 29.671875 C-4.45170242 28.82789154 -4.45809235 27.98390808 -4.4646759 27.11434937 C-4.60902456 21.27761076 -5.57965341 16.88312804 -9.70703125 12.4609375 C-12.96383839 10.83253393 -15.36288812 10.95760664 -18.95703125 11.3359375 C-22.29099167 12.6998304 -23.63434586 13.82769209 -25.56567383 16.86962891 C-27.32856498 21.26154477 -27.43326283 24.98471645 -27.46875 29.671875 C-27.4867012 30.55122711 -27.5046524 31.43057922 -27.52314758 32.33657837 C-27.57705937 35.12798355 -27.61108454 37.91921961 -27.64453125 40.7109375 C-27.67772125 42.61070052 -27.71221246 44.51044127 -27.74804688 46.41015625 C-27.83277474 51.05196094 -27.89967686 55.69371715 -27.95703125 60.3359375 C-32.57703125 60.3359375 -37.19703125 60.3359375 -41.95703125 60.3359375 C-41.96637695 59.12534668 -41.97572266 57.91475586 -41.98535156 56.66748047 C-42.02533073 52.1607634 -42.09111165 47.65472328 -42.16455078 43.1484375 C-42.19271446 41.20093505 -42.21395185 39.25331928 -42.22802734 37.30566406 C-42.24952071 34.50006282 -42.29620323 31.6958175 -42.34765625 28.890625 C-42.34888489 28.02476776 -42.35011353 27.15891052 -42.35137939 26.26681519 C-42.48200283 20.83219964 -43.30930015 17.62587478 -46.95703125 13.3359375 C-50.72579 10.82343167 -52.48853259 10.80577664 -56.95703125 11.3359375 C-61.2574059 14.17580755 -63.49927467 16.42876544 -64.95703125 21.3359375 C-65.27618933 24.34094302 -65.32892365 27.33534347 -65.37109375 30.35546875 C-65.3904599 31.21403976 -65.40982605 32.07261078 -65.42977905 32.9571991 C-65.48934681 35.68751224 -65.53586859 38.41786807 -65.58203125 41.1484375 C-65.62023204 43.00457523 -65.659285 44.86069562 -65.69921875 46.71679688 C-65.79502952 51.25636894 -65.87914446 55.79602396 -65.95703125 60.3359375 C-70.57703125 60.3359375 -75.19703125 60.3359375 -79.95703125 60.3359375 C-79.95703125 39.8759375 -79.95703125 19.4159375 -79.95703125 -1.6640625 C-75.00703125 -1.6640625 -70.05703125 -1.6640625 -64.95703125 -1.6640625 C-64.62703125 -0.0140625 -64.29703125 1.6359375 -63.95703125 3.3359375 C-63.11140625 2.5109375 -62.26578125 1.6859375 -61.39453125 0.8359375 C-55.67605778 -3.26873364 -48.6478581 -2.46637287 -41.95703125 -1.6640625 C-38.25130972 -0.50344701 -35.7089136 0.95790564 -33.7890625 4.4765625 C-33.51449219 5.09015625 -33.23992187 5.70375 -32.95703125 6.3359375 C-32.47234375 5.93761719 -31.98765625 5.53929687 -31.48828125 5.12890625 C-21.85365178 -2.48615666 -11.59987132 -5.78967029 0 0 Z " fill="#020202" transform="translate(286.95703125,47.6640625)"/>
<path d="M0 0 C6.62148162 5.41083759 11.22517193 12.03573894 12.78125 20.5234375 C12.78125 24.4834375 12.78125 28.4434375 12.78125 32.5234375 C-3.05875 32.5234375 -18.89875 32.5234375 -35.21875 32.5234375 C-33.30701131 39.21452292 -32.19541829 42.06169046 -26.4140625 45.640625 C-20.70305071 47.93722405 -13.35366404 47.23079477 -7.65625 45.1484375 C-4.20274604 43.61813155 -4.20274604 43.61813155 -1.21875 41.5234375 C2.08125 43.5034375 5.38125 45.4834375 8.78125 47.5234375 C7.59976651 51.06788797 6.71205733 51.53457307 3.65625 53.5234375 C2.91117188 54.0184375 2.16609375 54.5134375 1.3984375 55.0234375 C-4.93409455 58.65282901 -9.9081905 60.03024093 -17.09375 59.8984375 C-18.28846924 59.88321045 -18.28846924 59.88321045 -19.50732422 59.86767578 C-29.02088562 59.61624177 -36.26488926 57.26473481 -43.21875 50.5234375 C-50.36259047 41.6027027 -51.12211684 31.6268451 -50.21875 20.5234375 C-48.41902848 11.86968671 -44.26511677 4.99443763 -36.94140625 -0.04296875 C-26.13380612 -6.35489495 -10.70049971 -7.1211072 0 0 Z " fill="#060606" transform="translate(187.21875,49.4765625)"/>
<path d="M0 0 C4.95 0 9.9 0 15 0 C18.21702274 7.88227814 21.42914612 15.76650715 24.63623047 23.65283203 C25.77448046 26.44649608 26.91852731 29.23762877 28.06640625 32.02734375 C28.60695509 33.3514873 29.14733992 34.67569782 29.6875 36 C30.14511719 37.11375 30.60273438 38.2275 31.07421875 39.375 C32 42 32 42 32 45 C32.66 45 33.32 45 34 45 C34.13619751 44.04154175 34.13619751 44.04154175 34.27514648 43.0637207 C35.27420621 38.84101927 36.93089534 34.97926863 38.59765625 30.98046875 C38.95137802 30.12189774 39.30509979 29.26332672 39.66954041 28.3787384 C40.79630246 25.64655847 41.92930665 22.9170179 43.0625 20.1875 C43.82918966 18.33155102 44.59547041 16.47543306 45.36132812 14.61914062 C47.23615245 10.07745528 49.11657792 5.53812624 51 1 C55.95 1 60.9 1 66 1 C63.72227575 8.23290582 60.90318929 15.11404556 57.875 22.0625 C56.80468303 24.52809073 55.73531304 26.9940612 54.66796875 29.4609375 C54.38196304 30.1213353 54.09595734 30.78173309 53.80128479 31.46214294 C51.75759405 36.19827819 49.7640535 40.95372601 47.79125977 45.71980286 C46.30049793 49.32049925 44.79960012 52.91694016 43.29864502 56.51339722 C42.56415119 58.28104407 41.83436746 60.05065623 41.10955811 61.82229614 C31.149451 86.14759958 31.149451 86.14759958 22 90 C17.42182322 91.39888735 12.74273114 91.07078703 8 91 C8 86.71 8 82.42 8 78 C10.35125 77.690625 10.35125 77.690625 12.75 77.375 C16.719352 76.58449346 17.71455197 76.32112903 20.5 73.1875 C20.995 72.135625 21.49 71.08375 22 70 C22.433125 69.195625 22.86625 68.39125 23.3125 67.5625 C25.23128015 60.41068307 21.34992229 53.38684397 18.6328125 46.9140625 C18.19742157 45.85770599 17.76203064 44.80134949 17.31344604 43.71298218 C15.92483443 40.34714518 14.52553232 36.98589216 13.125 33.625 C11.73334829 30.27056465 10.34403981 26.91518989 8.95797729 23.55844116 C8.09681169 21.47443348 7.2321951 19.3918473 6.36355591 17.3109436 C3.99722178 11.60171301 1.8802044 5.8878688 0 0 Z " fill="#030303" transform="translate(299,46)"/>
<path d="M0 0 C4.95 0 9.9 0 15 0 C15.01458252 1.21582764 15.02916504 2.43165527 15.04418945 3.68432617 C15.10225098 8.20399078 15.1794836 12.72316127 15.26245117 17.24243164 C15.29566354 19.19677702 15.32370695 21.15121747 15.34643555 23.10571289 C15.38004933 25.91854282 15.43236854 28.73050447 15.48828125 31.54296875 C15.49467117 32.41398727 15.5010611 33.2850058 15.50764465 34.18241882 C15.62247486 38.94216145 15.95259746 42.11589917 19 46 C21.9262867 48.78636031 23.92497395 49.41209577 27.9375 49.375 C32.08373941 49.23475955 34.79098741 48.82004136 38 46 C41.62154871 41.41395995 41.47067111 37.13822436 41.51171875 31.54296875 C41.52966995 30.64000565 41.54762115 29.73704254 41.56611633 28.80671692 C41.62013021 25.93369156 41.65408637 23.06083149 41.6875 20.1875 C41.72068096 18.23500309 41.75517134 16.28252796 41.79101562 14.33007812 C41.8758516 9.55350484 41.94270536 4.77697982 42 0 C46.95 0 51.9 0 57 0 C57.04967973 5.69253284 57.08585156 11.38493762 57.10986328 17.07763672 C57.11988036 19.01157837 57.13349784 20.94550504 57.15087891 22.87939453 C57.17531686 25.66963414 57.18652628 28.45967236 57.1953125 31.25 C57.20563507 32.10553467 57.21595764 32.96106934 57.22659302 33.8425293 C57.2280663 41.84226293 56.14936474 48.56329407 51 55 C44.08380284 61.75901086 36.91309916 63.5731468 27.5625 63.5 C26.72501221 63.49500488 25.88752441 63.49000977 25.0246582 63.48486328 C18.60854706 63.30324569 13.97728013 62.25495376 9 58 C8.42121094 57.56558594 7.84242187 57.13117188 7.24609375 56.68359375 C2.06602858 52.30238201 0.41878116 46.07780168 -0.25790405 39.4887085 C-0.34315119 36.93204954 -0.33864087 34.39354633 -0.29296875 31.8359375 C-0.28872391 30.91785309 -0.28447906 29.99976868 -0.28010559 29.05386353 C-0.26349497 26.16059322 -0.22587775 23.2680549 -0.1875 20.375 C-0.17243032 18.39714557 -0.15874595 16.41928008 -0.14648438 14.44140625 C-0.11364953 9.62732798 -0.06199238 4.81378749 0 0 Z " fill="#050505" transform="translate(0,46)"/>
<path d="M0 0 C20.70387307 -1.28780072 32.64318142 -0.57496939 49.78125 11.46606445 C52.0297133 13.08446552 52.0297133 13.08446552 54.75073242 14.45898438 C55.49299072 14.96751953 56.23524902 15.47605469 57 16 C57.37859559 18.94093052 57.47775614 21.27644958 57.3125 24.1875 C57.28994141 24.93708984 57.26738281 25.68667969 57.24414062 26.45898438 C57.18529157 28.3068447 57.09560938 30.15367667 57 32 C52.81278941 30.75810492 49.56400851 29.24503649 45.98828125 26.75 C45.06466797 26.14285156 44.14105469 25.53570313 43.18945312 24.91015625 C41.27039417 23.63599491 39.37150082 22.33093198 37.49414062 20.99609375 C34.62768417 19.15663521 32.30860734 17.82764956 29 17 C24.74780842 18.18065977 21.56054926 20.45162234 18 23 C16.50978264 23.87081505 15.0091897 24.72426154 13.49609375 25.5546875 C11.43698968 26.73019886 9.37963245 27.90840365 7.32617188 29.09375 C2.22046397 32 2.22046397 32 0 32 C0 21.44 0 10.88 0 0 Z " fill="#A436F0" transform="translate(0,0)"/>
<path d="M0 0 C4.07246726 2.84287865 6.89623477 6.70715965 8.82421875 11.2734375 C9.66483431 17.020902 9.21799109 22.38411349 6.265625 27.4453125 C2.68287992 31.98928187 -1.41275651 34.72965072 -7.11328125 35.8515625 C-13.62383224 36.21695057 -18.23600786 35.06054276 -23.39453125 31.0234375 C-28.10374966 26.39683695 -28.36849547 22.04656945 -28.61328125 15.7109375 C-28.47963158 10.4135506 -27.9385085 7.23955541 -24.17578125 3.2734375 C-16.85046164 -3.48839598 -8.74722252 -4.84620187 0 0 Z " fill="#FAFAFA" transform="translate(107.17578125,60.7265625)"/>
<path d="M0 0 C3.375 1.75 3.375 1.75 6 4 C6.763125 4.639375 7.52625 5.27875 8.3125 5.9375 C10 8 10 8 11 13 C0.11 13 -10.78 13 -22 13 C-20.97845341 7.89226707 -20.81907327 7.30809729 -17.125 4.25 C-16.42632812 3.65703125 -15.72765625 3.0640625 -15.0078125 2.453125 C-10.52481818 -0.79137673 -5.31157013 -0.6049058 0 0 Z " fill="#F9F9F9" transform="translate(174,57)"/>
<path d="M0 0 C9.24 0 18.48 0 28 0 C23.16479409 3.62640443 18.07339537 6.61572092 12.875 9.6875 C11.86050781 10.29400391 10.84601562 10.90050781 9.80078125 11.52539062 C8.83269531 12.09837891 7.86460937 12.67136719 6.8671875 13.26171875 C5.98144043 13.78725342 5.09569336 14.31278809 4.18310547 14.85424805 C2 16 2 16 0 16 C0 10.72 0 5.44 0 0 Z " fill="#FDFBFE" transform="translate(0,0)"/>
</svg>
